<svg version="1.1" xmlns="http://www.w3.org/2000/svg" xmlns:xlink="http://www.w3.org/1999/xlink" x="0px" y="0px" viewBox="0 0 256 256" enable-background="new 0 0 256 256" xml:space="preserve">
<metadata> Svg Vector Icons : http://www.onlinewebfonts.com/icon </metadata>
<g><g><path fill="#fff9f9" data-title="Layer 0" xs="0" d="M175.2,187c0,6.5-5.2,11.8-11.8,11.8c-6.5,0-11.8-5.3-11.8-11.8c0-6.5,5.3-11.8,11.8-11.8C169.9,175.2,175.2,180.5,175.2,187z M104.4,175.2c-6.5,0-11.8,5.3-11.8,11.8s5.3,11.8,11.8,11.8c6.6,0,11.8-5.3,11.8-11.8S110.9,175.2,104.4,175.2z M246,57.2v141.6c0,26.1-21.1,47.2-47.2,47.2H57.2C31.1,246,10,224.9,10,198.8V57.2C10,31.1,31.1,10,57.2,10h141.6C224.9,10,246,31.1,246,57.2z M222.4,69c0-19.6-15.8-35.4-35.4-35.4H69c-19.6,0-35.4,15.8-35.4,35.4v118c0,19.6,15.9,35.4,35.4,35.4h118c19.6,0,35.4-15.8,35.4-35.4V69z M86,69h-5.2H66.4h-21l11.8,11.8h11.6l2.4,11.8h0.1l9.5,47.2l4.4,23.6h7.4h5.2H183l2.2-11.8H95.5l-2.2-11.8H187l11.8-59H89.3L86,69z"/></g></g>
</svg>
