<svg width="378" height="85" viewBox="0 0 378 85" fill="none" xmlns="http://www.w3.org/2000/svg">
<g clip-path="url(#clip0_444_2055)">
<path d="M231.28 47.82L238.08 48.71C238.127 48.7149 238.173 48.7293 238.214 48.7522C238.255 48.7752 238.292 48.8064 238.32 48.8437C238.349 48.8811 238.371 48.924 238.383 48.9698C238.394 49.0155 238.397 49.0632 238.39 49.11C238.384 49.1568 238.367 49.2014 238.34 49.24C231.61 61.12 204.34 59.89 210.06 43.84C213.9 32.82 237.9 29.59 239.83 41.82C239.852 41.8815 239.858 41.9475 239.848 42.012C239.838 42.0765 239.812 42.1374 239.772 42.1892C239.732 42.2409 239.68 42.2819 239.62 42.3082C239.56 42.3346 239.495 42.3455 239.43 42.34L232.9 42.82C232.784 42.8307 232.667 42.8021 232.569 42.7386C232.471 42.6751 232.398 42.5805 232.36 42.47C232.101 41.6296 231.587 40.89 230.891 40.3528C230.194 39.8157 229.349 39.5073 228.47 39.47C222.737 38.8033 219.133 41.0233 217.66 46.13C215.47 53.7 226.89 53.34 230.37 48.21C230.47 48.0659 230.608 47.9529 230.769 47.8839C230.93 47.8149 231.107 47.7927 231.28 47.82Z" fill="#1A6CBC"/>
<path d="M253.09 37.1501C254.09 35.9801 254.68 34.4801 256.51 34.4101C258.63 34.3301 260.843 34.3301 263.15 34.4101C263.297 34.4194 263.438 34.4744 263.553 34.5677C263.668 34.6609 263.751 34.7876 263.79 34.9301L269.08 56.3601C269.17 56.7001 269.08 56.8701 268.68 56.8701H262.43C262.136 56.893 261.844 56.802 261.615 56.6159C261.386 56.4298 261.238 56.1628 261.2 55.8701L260.51 52.8201C260.483 52.6319 260.385 52.461 260.236 52.3422C260.088 52.2234 259.9 52.1654 259.71 52.1801C256.59 52.1801 253.493 52.1801 250.42 52.1801C247.72 52.1801 246.56 54.6501 245.1 56.4701C244.99 56.6113 244.849 56.7253 244.687 56.8033C244.526 56.8813 244.349 56.9213 244.17 56.9201H236.69C236.25 56.9201 236.17 56.7501 236.45 56.4101C241.937 49.9034 247.483 43.4834 253.09 37.1501ZM258.09 41.8601C258.069 41.7774 258.016 41.7062 257.943 41.6614C257.871 41.6167 257.783 41.6019 257.7 41.6201C257.631 41.6327 257.567 41.6678 257.52 41.7201L253.41 46.7201C253.379 46.7508 253.354 46.7874 253.337 46.8277C253.32 46.8681 253.312 46.9114 253.312 46.9551C253.312 46.9988 253.32 47.0421 253.337 47.0825C253.354 47.1228 253.379 47.1594 253.41 47.1901C253.44 47.2193 253.476 47.2416 253.516 47.2554C253.556 47.2692 253.598 47.2742 253.64 47.2701L258.78 47.1601C258.867 47.1601 258.951 47.1253 259.013 47.0634C259.075 47.0016 259.11 46.9176 259.11 46.8301C259.115 46.807 259.115 46.7832 259.11 46.7601L258.09 41.8601Z" fill="#1A6CBC"/>
<path d="M296.24 48.0302L302.06 56.2002C302.39 56.6602 302.27 56.8902 301.71 56.8902H294.13C293.959 56.8981 293.789 56.856 293.642 56.769C293.495 56.6819 293.376 56.5538 293.3 56.4002C290.58 51.4802 289.58 48.6002 283.48 48.0502C283.14 48.0117 282.798 48.1039 282.523 48.3082C282.248 48.5124 282.061 48.8134 282 49.1502C281.24 51.5702 280.46 53.9602 279.65 56.3402C279.608 56.5066 279.509 56.6529 279.37 56.7535C279.231 56.854 279.061 56.9025 278.89 56.8902H272.17C271.65 56.8902 271.46 56.6402 271.62 56.1402L278.39 34.9602C278.437 34.8156 278.528 34.6891 278.65 34.5979C278.771 34.5066 278.918 34.4551 279.07 34.4502C286.09 34.2702 292.263 34.3636 297.59 34.7302C307.34 35.4002 305.64 46.0902 296.45 47.5302C296.11 47.5902 296.04 47.7502 296.24 48.0302ZM284.84 40.0902L284 42.9702C283.9 43.3102 284 43.4902 284.38 43.5302C288.152 44.0059 291.983 43.5244 295.52 42.1302C295.79 42.0225 296.014 41.8249 296.155 41.5707C296.296 41.3165 296.345 41.0214 296.293 40.7354C296.241 40.4495 296.092 40.1902 295.871 40.0016C295.65 39.8129 295.371 39.7064 295.08 39.7002L285.51 39.5902C285.357 39.5794 285.205 39.6239 285.082 39.7157C284.959 39.8075 284.873 39.9404 284.84 40.0902Z" fill="#1A6CBC"/>
<path d="M329.27 42.0201L341.33 34.74C341.603 34.5785 341.913 34.4923 342.23 34.49L377.37 34.3601C377.425 34.3523 377.481 34.3571 377.535 34.3742C377.588 34.3912 377.636 34.42 377.677 34.4585C377.717 34.497 377.748 34.5441 377.768 34.5963C377.787 34.6485 377.795 34.7045 377.79 34.76C377.84 36.99 377.44 38.4301 376.6 39.0901C371.22 43.3434 365.8 47.4534 360.34 51.42C360.286 51.4634 360.25 51.5261 360.241 51.595C360.231 51.6639 360.249 51.7338 360.29 51.7901C360.313 51.8211 360.343 51.8463 360.378 51.8637C360.413 51.881 360.451 51.8901 360.49 51.8901H374.73C375.13 51.8901 375.27 52.0801 375.14 52.4601L373.9 56.3701C373.862 56.5268 373.77 56.6652 373.64 56.7604C373.51 56.8556 373.351 56.9016 373.19 56.8901H339.7C339.546 56.8912 339.393 56.8566 339.254 56.789C339.115 56.7213 338.994 56.6224 338.9 56.5001L331.9 47.5001C331.854 47.4275 331.793 47.3653 331.722 47.3175C331.65 47.2696 331.57 47.2371 331.485 47.2221C331.401 47.207 331.314 47.2098 331.23 47.2301C331.147 47.2504 331.068 47.2878 331 47.3401L326.42 50.1601C326.15 50.3217 325.95 50.5785 325.86 50.8801L324.15 56.35C324.114 56.5078 324.023 56.6474 323.892 56.743C323.762 56.8385 323.601 56.8837 323.44 56.8701H316.38C316.02 56.8701 315.89 56.7001 316 56.35L322.9 35.0701C322.947 34.8932 323.053 34.7377 323.2 34.6287C323.347 34.5197 323.527 34.4638 323.71 34.4701L330.55 34.37C331.02 34.37 331.18 34.5801 331.03 35.0201L328.85 41.6501C328.825 41.7309 328.833 41.8185 328.872 41.8934C328.912 41.9684 328.979 42.0247 329.06 42.05C329.131 42.068 329.207 42.0572 329.27 42.0201ZM352.5 39.46C352.457 39.4601 352.415 39.4515 352.375 39.4348C352.336 39.4181 352.3 39.3936 352.27 39.3628C352.24 39.332 352.217 39.2956 352.201 39.2556C352.186 39.2156 352.179 39.1729 352.18 39.1301C352.175 39.0969 352.175 39.0632 352.18 39.03L353.35 35.3201C353.375 35.2365 353.366 35.1465 353.325 35.0697C353.283 34.9929 353.213 34.9355 353.13 34.9101C353.046 34.8803 352.954 34.8803 352.87 34.9101L338.04 43.3801C337.964 43.4205 337.906 43.4892 337.88 43.5715C337.854 43.6537 337.861 43.743 337.9 43.8201L347.4 55.33C347.436 55.3829 347.487 55.4236 347.547 55.447C347.606 55.4705 347.672 55.4755 347.734 55.4615C347.796 55.4475 347.853 55.4151 347.897 55.3685C347.941 55.3219 347.97 55.2632 347.98 55.2001L348.75 52.3201C348.771 52.2492 348.812 52.1863 348.87 52.1401L365.02 39.87C365.055 39.8445 365.085 39.812 365.107 39.7747C365.129 39.7374 365.143 39.696 365.149 39.6529C365.154 39.6099 365.151 39.5662 365.139 39.5244C365.127 39.4827 365.107 39.4438 365.08 39.4101C365.049 39.37 365.01 39.3374 364.965 39.3149C364.92 39.2923 364.87 39.2804 364.82 39.28L352.5 39.46Z" fill="#1A6CBC"/>
<path d="M305.58 51.3901H312.58C312.676 51.3927 312.768 51.4329 312.835 51.502C312.902 51.5711 312.94 51.6637 312.94 51.7601C312.945 51.79 312.945 51.8203 312.94 51.8501L311.51 56.6301C311.49 56.7067 311.444 56.7741 311.38 56.8213C311.317 56.8685 311.239 56.8928 311.16 56.8901H304.22C304.173 56.8929 304.126 56.8859 304.081 56.8694C304.037 56.853 303.997 56.8274 303.963 56.7945C303.929 56.7616 303.902 56.722 303.885 56.6782C303.867 56.6344 303.859 56.5874 303.86 56.5401C303.855 56.5036 303.855 56.4666 303.86 56.4301L305.24 51.6501C305.264 51.5777 305.309 51.5141 305.37 51.4677C305.431 51.4213 305.504 51.3943 305.58 51.3901Z" fill="#1A6CBC"/>
<path d="M201.34 16.3102C202.71 31.0802 200.71 46.9802 191.22 59.6602C198.51 45.7902 205.29 22.4902 194.59 8.38022C201.68 22.8302 197.42 46.0002 187.5 59.3002C194.11 46.1202 203.02 18.2502 188.79 5.60022C198.61 22.0902 192.4 45.1702 182.6 59.6602C189.33 45.8402 199.31 16.5502 183.39 4.16022C194.13 18.3802 187.58 47.0802 177.04 59.4502C179.85 54.7202 183.57 44.0802 183.57 44.0802C183.57 44.6602 193.96 16.5002 178.94 3.76022C181.15 8.05022 188.24 24.6602 178.67 46.8402C176.67 51.1302 174.89 55.8402 171.91 59.3402C174.54 52.7102 179.15 43.6602 180.91 35.7502C180.91 35.7502 187.09 10.4702 173.76 2.33022C173.76 2.33022 158.53 -7.66978 138.44 13.9102C138.44 13.9102 134.19 18.5002 133.08 21.8202L72.47 23.0202L134.13 24.9702C134.13 24.9702 138.68 17.7402 142.93 13.8702C145.15 11.9459 147.513 10.1942 150 8.63022C153.27 6.63022 156.89 5.72022 161.87 5.70022C167.15 5.70022 169.65 7.24022 172.68 10.5302C173.515 11.6262 174.217 12.818 174.77 14.0802C175.857 16.2726 176.534 18.6447 176.77 21.0802L177.17 24.9002C177.348 26.8049 177.381 28.7204 177.27 30.6302L176.71 35.2402C172.78 52.9902 159.09 74.3102 141.98 76.1802C135.9 76.8502 128.8 74.3302 125.98 64.9002H124.45L0 64.8702V65.9802L122.73 67.9102L123.28 69.4802C123.51 69.9802 123.99 70.4802 124.33 71.0402H19.66V72.1502L127.42 75.0602L129.35 76.8202L70.96 77.5602V78.6602L133.45 80.3002C133.77 80.5102 134.09 80.7302 134.45 80.9302L135.85 81.8002L101 83.8902L101.07 84.9402H142.81H158.9C186.9 86.7402 211.31 43.9302 201.34 16.3102Z" fill="url(#paint0_linear_444_2055)"/>
<path d="M164.41 16.8198H150.96L109.9 45.9098L106.9 53.9098H136.9L133.85 63.9098H147.9L150.9 53.9098H160.9L163.27 45.9098H153.9L164.41 16.8198ZM139.77 45.8198H126.9C126.831 45.8248 126.763 45.8068 126.706 45.7685C126.648 45.7303 126.605 45.674 126.583 45.6087C126.562 45.5433 126.562 45.4725 126.585 45.4076C126.608 45.3426 126.652 45.2871 126.71 45.2498L143.25 32.8998C143.306 32.8596 143.373 32.8377 143.441 32.8373C143.51 32.837 143.577 32.8581 143.634 32.8977C143.69 32.9374 143.732 32.9936 143.755 33.0585C143.777 33.1234 143.779 33.1938 143.76 33.2598L139.77 45.8198Z" fill="#A33339" stroke="black" stroke-width="0.25" stroke-miterlimit="10"/>
<path d="M207.07 67.98C207.07 67.98 200.56 78.98 193.92 82.4H329.24L332.43 74.62H341.49L344.3 67.98H207.07Z" fill="url(#paint1_linear_444_2055)" stroke="black" stroke-width="0.25" stroke-miterlimit="10"/>
<path d="M342.9 75.3399L340.02 82.5899C340.007 82.6264 340.003 82.6655 340.009 82.7038C340.014 82.7422 340.029 82.7786 340.051 82.81C340.074 82.8415 340.104 82.867 340.138 82.8844C340.173 82.9018 340.211 82.9105 340.25 82.9099H347.52C347.567 82.9131 347.613 82.9012 347.653 82.876C347.693 82.8509 347.723 82.8137 347.74 82.7699L350.68 75.5199C350.695 75.4837 350.7 75.4444 350.696 75.4055C350.692 75.3667 350.679 75.3293 350.657 75.2968C350.635 75.2643 350.606 75.2375 350.572 75.2189C350.537 75.2003 350.499 75.1903 350.46 75.1899H343.1C343.056 75.1942 343.014 75.2104 342.979 75.2368C342.944 75.2633 342.916 75.299 342.9 75.3399Z" fill="#CF2E37"/>
<path d="M354.1 67.38L350.96 74.55C350.942 74.592 350.935 74.6377 350.938 74.6833C350.942 74.7288 350.957 74.7727 350.982 74.8112C351.006 74.8496 351.04 74.8815 351.08 74.9039C351.12 74.9264 351.164 74.9387 351.21 74.94H357.63C357.685 74.939 357.739 74.9213 357.783 74.8891C357.828 74.8569 357.862 74.8119 357.88 74.76L360.79 67.59C360.806 67.5477 360.812 67.5021 360.807 67.4572C360.801 67.4122 360.785 67.3692 360.76 67.3318C360.734 67.2945 360.7 67.2639 360.66 67.2427C360.62 67.2214 360.575 67.2102 360.53 67.21H354.35C354.296 67.2114 354.244 67.2282 354.2 67.2583C354.156 67.2885 354.121 67.3307 354.1 67.38Z" fill="#CF2E37"/>
<path d="M357.77 74.9998L354.61 82.5499C354.593 82.5894 354.587 82.6323 354.591 82.6749C354.595 82.7175 354.61 82.7585 354.634 82.7941C354.657 82.8297 354.69 82.8589 354.727 82.8791C354.765 82.8993 354.807 82.9098 354.85 82.9098H361.3C361.351 82.9098 361.401 82.8947 361.444 82.8662C361.487 82.8377 361.52 82.7972 361.54 82.7498L364.47 75.1998C364.484 75.1595 364.489 75.1163 364.483 75.0739C364.477 75.0314 364.462 74.991 364.437 74.9558C364.413 74.9206 364.38 74.8918 364.343 74.8716C364.305 74.8515 364.263 74.8406 364.22 74.8398H358.01C357.959 74.8398 357.908 74.855 357.866 74.8835C357.823 74.912 357.79 74.9525 357.77 74.9998Z" fill="#CF2E37"/>
<path d="M366.74 68.0602L364.41 74.8202C364.397 74.8525 364.392 74.8877 364.395 74.9225C364.399 74.9573 364.411 74.9906 364.431 75.0195C364.451 75.0483 364.478 75.0717 364.509 75.0875C364.54 75.1034 364.575 75.1111 364.61 75.1102H368.61C368.656 75.1105 368.702 75.0961 368.739 75.0692C368.777 75.0422 368.805 75.0041 368.82 74.9602L370.9 68.1902C370.909 68.1576 370.911 68.1233 370.905 68.09C370.898 68.0567 370.885 68.0253 370.864 67.9982C370.844 67.9711 370.818 67.949 370.787 67.9338C370.757 67.9185 370.724 67.9104 370.69 67.9102H366.93C366.887 67.9138 366.846 67.93 366.812 67.9567C366.779 67.9833 366.753 68.0193 366.74 68.0602Z" fill="#CF2E37"/>
</g>
<defs>
<linearGradient id="paint0_linear_444_2055" x1="101.81" y1="1.88022" x2="101.81" y2="86.8402" gradientUnits="userSpaceOnUse">
<stop stop-color="#36A6DB"/>
<stop offset="1" stop-color="#414492"/>
</linearGradient>
<linearGradient id="paint1_linear_444_2055" x1="193.92" y1="75.19" x2="344.3" y2="75.19" gradientUnits="userSpaceOnUse">
<stop stop-color="#902F35"/>
<stop offset="1" stop-color="#CF2E37"/>
</linearGradient>
<clipPath id="clip0_444_2055">
<rect width="377.79" height="84.96" fill="white"/>
</clipPath>
</defs>
</svg>
